<svg width="127" height="127" viewBox="0 0 127 127" fill="none" xmlns="http://www.w3.org/2000/svg">
<g clip-path="url(#clip0_33_200)">
<circle cx="63.1009" cy="64.1009" r="63.1009" fill="white"/>
<circle cx="63.5521" cy="64.1915" r="48.5521" fill="#121B1F"/>
<path d="M60.0158 9.63737C31.3545 11.2287 8.60342 34.9931 8.60342 64.0756C8.60342 93.1582 31.3545 116.923 60.0158 118.514V125.132C27.7057 123.534 2 96.809 2 64.0756C2 31.3423 27.7057 4.61779 60.0158 3.01929V9.63737Z" fill="#3FB9E9"/>
<path d="M66.6193 3.11963V9.74079C95.058 11.565 117.56 35.228 117.56 64.1508C117.56 93.0737 95.058 116.737 66.6193 118.561V125.182C98.7074 123.348 124.163 96.7247 124.163 64.1508C124.163 31.5769 98.7074 4.95348 66.6193 3.11963Z" fill="#E79B45"/>
<mask id="mask0_33_200" style="mask-type:alpha" maskUnits="userSpaceOnUse" x="15" y="15" width="98" height="98">
<circle cx="63.5521" cy="64.1915" r="48.5521" fill="#D9D9D9"/>
</mask>
<g mask="url(#mask0_33_200)">
<path d="M40.4337 61.2389C40.4337 65.1689 37.2477 68.3549 33.3176 68.3549C29.3875 68.3549 26.2016 65.1689 26.2016 61.2389C26.2016 57.3088 29.3875 54.1228 33.3176 54.1228C37.2477 54.1228 40.4337 57.3088 40.4337 61.2389Z" fill="#E79B45"/>
<path d="M18 80.3432C18 74.2551 22.536 69.3198 28.1313 69.3198H38.7451C44.3405 69.3198 48.8764 74.2551 48.8764 80.3432V146.752H18V80.3432Z" fill="#E79B45"/>
<path d="M99.5016 61.2389C99.5016 65.1689 96.3157 68.3549 92.3856 68.3549C88.4555 68.3549 85.2695 65.1689 85.2695 61.2389C85.2695 57.3088 88.4555 54.1228 92.3856 54.1228C96.3157 54.1228 99.5016 57.3088 99.5016 61.2389Z" fill="#3FB9E9"/>
<path d="M77.068 80.3432C77.068 74.2551 81.6039 69.3198 87.1993 69.3198H97.8131C103.408 69.3198 107.944 74.2551 107.944 80.3432V146.752H77.068V80.3432Z" fill="#3FB9E9"/>
<path d="M76.1731 45.3966C76.1731 52.6872 70.2629 58.5974 62.9723 58.5974C55.6817 58.5974 49.7715 52.6872 49.7715 45.3966C49.7715 38.106 55.6817 32.1958 62.9723 32.1958C70.2629 32.1958 76.1731 38.106 76.1731 45.3966Z" fill="white"/>
<path d="M34.557 80.8365C34.557 69.5427 42.9715 60.3873 53.3514 60.3873H73.0407C83.4205 60.3873 91.835 69.5427 91.835 80.8365V137.802H82.8853V132.806V100.72C82.8853 100.226 82.4846 99.8251 81.9904 99.8251C81.4961 99.8251 81.0954 100.226 81.0954 100.72V134.399V137.802H45.2966V134.277V100.72C45.2966 100.226 44.896 99.8251 44.4017 99.8251C43.9074 99.8251 43.5067 100.226 43.5067 100.72V132.655V137.802H34.557V80.8365Z" fill="white"/>
</g>
</g>
<defs>
<clipPath id="clip0_33_200">
<rect width="126.202" height="126.202" fill="white"/>
</clipPath>
</defs>
</svg>
