<svg width="540" height="95" viewBox="0 0 540 95" fill="none" xmlns="http://www.w3.org/2000/svg">
    <g clip-path="url(#clip0_33_204)">
      <rect width="94" height="94.9916" rx="47" fill="white" />
      <path
        d="M44.2124 6.92941C22.8644 8.11466 5.91849 25.8153 5.91849 47.4772C5.91849 69.139 22.8644 86.8397 44.2124 88.0249V92.9544C20.1466 91.7637 1 71.8583 1 47.4772C1 23.0961 20.1466 3.19063 44.2124 2V6.92941Z"
        fill="#3FB9E9" />
      <path
        d="M49.131 2.07471V7.00641C70.3133 8.36518 87.0736 25.9903 87.0736 47.5331C87.0736 69.076 70.3133 86.7011 49.131 88.0599V92.9916C73.0315 91.6257 91.9921 71.7955 91.9921 47.5331C91.9921 23.2708 73.0315 3.44063 49.131 2.07471Z"
        fill="#E79B45" />
      <circle cx="47.3361" cy="47.0675" r="36.1635" fill="#121B1F" />
      <mask id="mask0_33_204" style="mask-type:alpha" maskUnits="userSpaceOnUse" x="11" y="10" width="73" height="74">
        <circle cx="47.3361" cy="47.0675" r="36.1635" fill="#D9D9D9" />
      </mask>
      <g mask="url(#mask0_33_204)">
        <path
          d="M30.1166 44.8682C30.1166 47.7955 27.7435 50.1685 24.8163 50.1685C21.889 50.1685 19.5159 47.7955 19.5159 44.8682C19.5159 41.9409 21.889 39.5679 24.8163 39.5679C27.7435 39.5679 30.1166 41.9409 30.1166 44.8682Z"
          fill="#E79B45" />
        <path
          d="M13.4071 59.0978C13.4071 54.5632 16.7857 50.8872 20.9533 50.8872H28.8589C33.0265 50.8872 36.4051 54.5632 36.4051 59.0978V108.562H13.4071V59.0978Z"
          fill="#E79B45" />
        <path
          d="M74.1127 44.8682C74.1127 47.7955 71.7397 50.1685 68.8124 50.1685C65.8851 50.1685 63.5121 47.7955 63.5121 44.8682C63.5121 41.9409 65.8851 39.5679 68.8124 39.5679C71.7397 39.5679 74.1127 41.9409 74.1127 44.8682Z"
          fill="#3FB9E9" />
        <path
          d="M57.4033 59.0978C57.4033 54.5632 60.7818 50.8872 64.9495 50.8872H72.855C77.0227 50.8872 80.4012 54.5632 80.4012 59.0978V108.562H57.4033V59.0978Z"
          fill="#3FB9E9" />
        <path
          d="M56.7367 33.0683C56.7367 38.4987 52.3345 42.9008 46.9042 42.9008C41.4739 42.9008 37.0717 38.4987 37.0717 33.0683C37.0717 27.638 41.4739 23.2358 46.9042 23.2358C52.3345 23.2358 56.7367 27.638 56.7367 33.0683Z"
          fill="white" />
        <path
          d="M25.7394 59.4653C25.7394 51.0533 32.0069 44.234 39.7382 44.234H54.4036C62.1349 44.234 68.4023 51.0533 68.4023 59.4653V101.896H61.7362V98.1745V74.2754C61.7362 73.9072 61.4378 73.6088 61.0696 73.6088C60.7015 73.6088 60.403 73.9072 60.403 74.2754V99.3609V101.896H33.7387V99.2699V74.2754C33.7387 73.9072 33.4403 73.6088 33.0721 73.6088C32.7039 73.6088 32.4055 73.9072 32.4055 74.2754V98.0618V101.896H25.7394V59.4653Z"
          fill="white" />
      </g>
      <path
        d="M134.128 22.9997C126.972 22.9997 123.505 26.3574 123.505 32.3574V36.7611H141.119V41.4951H123.505V57.073H118V32.3024C118 23.4951 123.89 18.1006 133.963 18.1006C138.257 18.1006 142.22 19.0363 145.083 21.018L143.266 25.5868C140.679 23.7703 137.486 22.9997 134.128 22.9997Z"
        fill="black" />
      <path
        d="M154.931 32.7978C156.803 29.385 160.436 27.6235 165.555 27.6235V32.7428C165.115 32.6877 164.729 32.6877 164.344 32.6877C158.674 32.6877 155.151 36.1556 155.151 42.5409V57.073H149.867V27.8987H154.931V32.7978Z"
        fill="black" />
      <path
        d="M194.038 27.8987H199.322V57.073H194.258V52.4492C191.891 55.7519 188.148 57.4033 183.854 57.4033C175.322 57.4033 169.102 51.4033 169.102 42.4859C169.102 33.5685 175.322 27.6235 183.854 27.6235C187.983 27.6235 191.616 29.1648 194.038 32.3024V27.8987ZM184.295 52.7795C189.854 52.7795 194.093 48.7061 194.093 42.4859C194.093 36.2657 189.854 32.2474 184.295 32.2474C178.68 32.2474 174.441 36.2657 174.441 42.4859C174.441 48.7061 178.68 52.7795 184.295 52.7795Z"
        fill="black" />
      <path
        d="M224.899 27.6235C232 27.6235 237.009 31.6969 237.009 40.2841V57.073H231.724V40.8896C231.724 35.1648 228.862 32.3574 223.853 32.3574C218.238 32.3574 214.605 35.7152 214.605 42.0455V57.073H209.321V27.8987H214.385V32.3024C216.532 29.3299 220.275 27.6235 224.899 27.6235Z"
        fill="black" />
      <path
        d="M259.665 57.4033C250.693 57.4033 244.252 51.1831 244.252 42.4859C244.252 33.7886 250.693 27.6235 259.665 27.6235C264.895 27.6235 269.243 29.7703 271.555 33.8437L267.537 36.4308C265.665 33.5685 262.803 32.2474 259.61 32.2474C253.885 32.2474 249.592 36.2657 249.592 42.4859C249.592 48.8162 253.885 52.7795 259.61 52.7795C262.803 52.7795 265.665 51.4584 267.537 48.596L271.555 51.1281C269.243 55.2015 264.895 57.4033 259.665 57.4033Z"
        fill="black" />
      <path
        d="M281.039 22.2841C279.002 22.2841 277.461 20.7978 277.461 18.8712C277.461 16.9446 279.002 15.4033 281.039 15.4033C283.076 15.4033 284.617 16.8896 284.617 18.7611C284.617 20.7428 283.131 22.2841 281.039 22.2841ZM278.397 57.073V27.8987H283.681V57.073H278.397Z"
        fill="black" />
      <path
        d="M302.138 57.4033C297.294 57.4033 292.505 55.9171 290.083 53.9905L292.285 49.807C294.762 51.5685 298.725 52.8345 302.523 52.8345C307.422 52.8345 309.459 51.3483 309.459 48.8712C309.459 42.3208 291.019 47.9905 291.019 36.3758C291.019 31.1464 295.698 27.6235 303.184 27.6235C306.982 27.6235 311.276 28.6143 313.808 30.2657L311.551 34.4492C308.909 32.7428 305.991 32.1373 303.129 32.1373C298.505 32.1373 296.248 33.8437 296.248 36.1556C296.248 43.0363 314.743 37.4217 314.743 48.7611C314.743 54.0455 309.899 57.4033 302.138 57.4033Z"
        fill="black" />
      <path
        d="M334.063 57.4033C325.091 57.4033 318.65 51.1831 318.65 42.4859C318.65 33.7886 325.091 27.6235 334.063 27.6235C339.293 27.6235 343.641 29.7703 345.953 33.8437L341.935 36.4308C340.063 33.5685 337.201 32.2474 334.008 32.2474C328.283 32.2474 323.99 36.2657 323.99 42.4859C323.99 48.8162 328.283 52.7795 334.008 52.7795C337.201 52.7795 340.063 51.4584 341.935 48.596L345.953 51.1281C343.641 55.2015 339.293 57.4033 334.063 57.4033Z"
        fill="black" />
      <path
        d="M364.86 57.4033C356.108 57.4033 349.667 51.1831 349.667 42.4859C349.667 33.7886 356.108 27.6235 364.86 27.6235C373.612 27.6235 379.998 33.7886 379.998 42.4859C379.998 51.1831 373.612 57.4033 364.86 57.4033ZM364.86 52.7795C370.475 52.7795 374.658 48.7061 374.658 42.4859C374.658 36.2657 370.475 32.2474 364.86 32.2474C359.245 32.2474 355.007 36.2657 355.007 42.4859C355.007 48.7061 359.245 52.7795 364.86 52.7795Z"
        fill="black" />
      <path d="M402.859 57.073V18.5409H408.364V52.2841H429.226V57.073H402.859Z" fill="black" />
      <path
        d="M437.414 22.2841C435.378 22.2841 433.836 20.7978 433.836 18.8712C433.836 16.9446 435.378 15.4033 437.414 15.4033C439.451 15.4033 440.992 16.8896 440.992 18.7611C440.992 20.7428 439.506 22.2841 437.414 22.2841ZM434.772 57.073V27.8987H440.057V57.073H434.772Z"
        fill="black" />
      <path
        d="M486.642 27.6235C493.743 27.6235 498.587 31.6969 498.587 40.2841V57.073H493.302V40.8896C493.302 35.1648 490.55 32.3574 485.761 32.3574C480.477 32.3574 477.009 35.7152 477.009 42.0455V57.073H471.724V40.8896C471.724 35.1648 468.972 32.3574 464.183 32.3574C458.899 32.3574 455.431 35.7152 455.431 42.0455V57.073H450.146V27.8987H455.211V32.2474C457.302 29.2749 460.88 27.6235 465.284 27.6235C469.743 27.6235 473.486 29.385 475.412 33.018C477.614 29.7152 481.688 27.6235 486.642 27.6235Z"
        fill="black" />
      <path
        d="M530.71 27.8987H535.994V57.073H530.93V52.4492C528.563 55.7519 524.82 57.4033 520.526 57.4033C511.994 57.4033 505.774 51.4033 505.774 42.4859C505.774 33.5685 511.994 27.6235 520.526 27.6235C524.655 27.6235 528.288 29.1648 530.71 32.3024V27.8987ZM520.967 52.7795C526.526 52.7795 530.765 48.7061 530.765 42.4859C530.765 36.2657 526.526 32.2474 520.967 32.2474C515.352 32.2474 511.114 36.2657 511.114 42.4859C511.114 48.7061 515.352 52.7795 520.967 52.7795Z"
        fill="black" />
      <path
        d="M124.88 67.9662H126.251V77.5598H124.88V73.2838H119.371V77.5598H118V67.9662H119.371V72.0915H124.88V67.9662Z"
        fill="black" />
      <path
        d="M133.097 77.6695C130.575 77.6695 129.04 76.203 129.04 73.4209V67.9662H130.41V73.366C130.41 75.4904 131.383 76.4497 133.11 76.4497C134.837 76.4497 135.824 75.4904 135.824 73.366V67.9662H137.153V73.4209C137.153 76.203 135.632 77.6695 133.097 77.6695Z"
        fill="black" />
      <path
        d="M150.174 77.5598H148.858L148.844 70.5702L145.377 76.3949H144.746L141.279 70.6113V77.5598H139.963V67.9662H141.087L145.089 74.7092L149.036 67.9662H150.16L150.174 77.5598Z"
        fill="black" />
      <path
        d="M160.221 77.5598L159.165 75.1614H154.067L153.012 77.5598H151.6L155.944 67.9662H157.301L161.66 77.5598H160.221ZM154.547 74.065H158.686L156.616 69.3641L154.547 74.065Z"
        fill="black" />
      <path
        d="M169.971 67.9662H171.341V77.5598H170.217L164.461 70.4057V77.5598H163.091V67.9662H164.215L169.971 75.1203V67.9662Z"
        fill="black" />
      <path d="M174.213 77.5598V67.9662H175.583V77.5598H174.213Z" fill="black" />
      <path
        d="M178.456 77.5598V67.9662H182.499C185.582 67.9662 187.679 69.9123 187.679 72.763C187.679 75.6137 185.582 77.5598 182.499 77.5598H178.456ZM179.826 76.3675H182.416C184.787 76.3675 186.309 74.9147 186.309 72.763C186.309 70.6113 184.787 69.1585 182.416 69.1585H179.826V76.3675Z"
        fill="black" />
      <path
        d="M196.812 77.5598L195.757 75.1614H190.659L189.603 77.5598H188.192L192.536 67.9662H193.893L198.251 77.5598H196.812ZM191.138 74.065H195.277L193.208 69.3641L191.138 74.065Z"
        fill="black" />
      <path
        d="M199.683 77.5598V67.9662H203.726C206.809 67.9662 208.906 69.9123 208.906 72.763C208.906 75.6137 206.809 77.5598 203.726 77.5598H199.683ZM201.053 76.3675H203.643C206.014 76.3675 207.536 74.9147 207.536 72.763C207.536 70.6113 206.014 69.1585 203.643 69.1585H201.053V76.3675Z"
        fill="black" />
      <path
        d="M212.376 76.3675H217.968V77.5598H211.005V67.9662H217.776V69.1585H212.376V72.1052H217.186V73.2701H212.376V76.3675Z"
        fill="black" />
      <path
        d="M220.458 75.7645C220.979 75.7645 221.349 76.1619 221.349 76.6964C221.349 76.9705 221.294 77.1761 221.116 77.6832L220.471 79.5882H219.608L220.115 77.5461C219.772 77.4228 219.539 77.1076 219.539 76.6964C219.539 76.1482 219.937 75.7645 220.458 75.7645Z"
        fill="black" />
      <path
        d="M234.274 77.5598L233.219 75.1614H228.121L227.065 77.5598H225.654L229.998 67.9662H231.355L235.713 77.5598H234.274ZM228.6 74.065H232.739L230.67 69.3641L228.6 74.065Z"
        fill="black" />
      <path
        d="M241.3 77.6695C238.395 77.6695 236.229 75.6 236.229 72.763C236.229 69.926 238.395 67.8566 241.314 67.8566C242.794 67.8566 244.082 68.3636 244.96 69.3504L244.069 70.2139C243.329 69.4327 242.424 69.0763 241.369 69.0763C239.203 69.0763 237.6 70.6387 237.6 72.763C237.6 74.8873 239.203 76.4497 241.369 76.4497C242.424 76.4497 243.329 76.0797 244.069 75.2985L244.96 76.1619C244.082 77.1487 242.794 77.6695 241.3 77.6695Z"
        fill="black" />
      <path
        d="M248.285 76.3675H253.877V77.5598H246.915V67.9662H253.685V69.1585H248.285V72.1052H253.096V73.2701H248.285V76.3675Z"
        fill="black" />
      <path
        d="M258.892 77.6695C257.425 77.6695 255.986 77.1761 255.219 76.4634L255.726 75.3944C256.439 76.0386 257.658 76.5045 258.892 76.5045C260.55 76.5045 261.263 75.8604 261.263 75.0244C261.263 72.6808 255.452 74.161 255.452 70.5976C255.452 69.1174 256.603 67.8566 259.125 67.8566C260.249 67.8566 261.414 68.1581 262.209 68.7063L261.756 69.8027C260.92 69.2682 259.975 69.0215 259.125 69.0215C257.494 69.0215 256.795 69.7068 256.795 70.5428C256.795 72.8864 262.606 71.4199 262.606 74.9421C262.606 76.4086 261.427 77.6695 258.892 77.6695Z"
        fill="black" />
      <path
        d="M267.404 77.6695C265.938 77.6695 264.499 77.1761 263.731 76.4634L264.238 75.3944C264.951 76.0386 266.171 76.5045 267.404 76.5045C269.062 76.5045 269.775 75.8604 269.775 75.0244C269.775 72.6808 263.964 74.161 263.964 70.5976C263.964 69.1174 265.115 67.8566 267.637 67.8566C268.761 67.8566 269.926 68.1581 270.721 68.7063L270.269 69.8027C269.433 69.2682 268.487 69.0215 267.637 69.0215C266.006 69.0215 265.307 69.7068 265.307 70.5428C265.307 72.8864 271.118 71.4199 271.118 74.9421C271.118 76.4086 269.94 77.6695 267.404 77.6695Z"
        fill="black" />
      <path d="M273.121 77.5598V67.9662H274.491V77.5598H273.121Z" fill="black" />
      <path
        d="M283.818 72.5849C284.901 72.8864 285.614 73.695 285.614 74.9696C285.614 76.6142 284.367 77.5598 281.941 77.5598H277.363V67.9662H281.667C283.873 67.9662 285.107 68.8981 285.107 70.4468C285.107 71.4884 284.572 72.2148 283.818 72.5849ZM281.543 69.0763H278.734V72.1463H281.543C282.941 72.1463 283.736 71.6255 283.736 70.6113C283.736 69.5971 282.941 69.0763 281.543 69.0763ZM281.886 76.4497C283.407 76.4497 284.23 75.97 284.23 74.8599C284.23 73.7498 283.407 73.2564 281.886 73.2564H278.734V76.4497H281.886Z"
        fill="black" />
      <path d="M287.736 77.5598V67.9662H289.106V77.5598H287.736Z" fill="black" />
      <path d="M291.979 77.5598V67.9662H293.349V76.3675H298.543V77.5598H291.979Z" fill="black" />
      <path d="M300.116 77.5598V67.9662H301.487V77.5598H300.116Z" fill="black" />
      <path
        d="M304.359 77.5598V67.9662H308.402C311.485 67.9662 313.582 69.9123 313.582 72.763C313.582 75.6137 311.485 77.5598 308.402 77.5598H304.359ZM305.729 76.3675H308.32C310.691 76.3675 312.212 74.9147 312.212 72.763C312.212 70.6113 310.691 69.1585 308.32 69.1585H305.729V76.3675Z"
        fill="black" />
      <path
        d="M322.716 77.5598L321.66 75.1614H316.562L315.507 77.5598H314.095L318.44 67.9662H319.796L324.155 77.5598H322.716ZM317.042 74.065H321.181L319.111 69.3641L317.042 74.065Z"
        fill="black" />
      <path
        d="M325.586 77.5598V67.9662H329.629C332.712 67.9662 334.809 69.9123 334.809 72.763C334.809 75.6137 332.712 77.5598 329.629 77.5598H325.586ZM326.956 76.3675H329.547C331.918 76.3675 333.439 74.9147 333.439 72.763C333.439 70.6113 331.918 69.1585 329.547 69.1585H326.956V76.3675Z"
        fill="black" />
      <path
        d="M338.279 76.3675H343.871V77.5598H336.909V67.9662H343.679V69.1585H338.279V72.1052H343.09V73.2701H338.279V76.3675Z"
        fill="black" />
      <path
        d="M346.361 75.7645C346.882 75.7645 347.252 76.1619 347.252 76.6964C347.252 76.9705 347.197 77.1761 347.019 77.6832L346.375 79.5882H345.511L346.018 77.5461C345.676 77.4228 345.443 77.1076 345.443 76.6964C345.443 76.1482 345.84 75.7645 346.361 75.7645Z"
        fill="black" />
      <path d="M353.01 77.5598V67.9662H354.38V77.5598H353.01Z" fill="black" />
      <path
        d="M364.132 67.9662H365.503V77.5598H364.379L358.623 70.4057V77.5598H357.252V67.9662H358.376L364.132 75.1203V67.9662Z"
        fill="black" />
      <path
        d="M372.664 77.6695C369.759 77.6695 367.593 75.6 367.593 72.763C367.593 69.926 369.759 67.8566 372.678 67.8566C374.158 67.8566 375.446 68.3636 376.323 69.3504L375.433 70.2139C374.693 69.4327 373.788 69.0763 372.733 69.0763C370.567 69.0763 368.964 70.6387 368.964 72.763C368.964 74.8873 370.567 76.4497 372.733 76.4497C373.788 76.4497 374.693 76.0797 375.433 75.2985L376.323 76.1619C375.446 77.1487 374.158 77.6695 372.664 77.6695Z"
        fill="black" />
      <path d="M378.279 77.5598V67.9662H379.649V76.3675H384.843V77.5598H378.279Z" fill="black" />
      <path
        d="M390.23 77.6695C387.708 77.6695 386.173 76.203 386.173 73.4209V67.9662H387.544V73.366C387.544 75.4904 388.517 76.4497 390.244 76.4497C391.971 76.4497 392.957 75.4904 392.957 73.366V67.9662H394.287V73.4209C394.287 76.203 392.765 77.6695 390.23 77.6695Z"
        fill="black" />
      <path
        d="M399.892 77.6695C398.426 77.6695 396.987 77.1761 396.219 76.4634L396.726 75.3944C397.439 76.0386 398.659 76.5045 399.892 76.5045C401.551 76.5045 402.263 75.8604 402.263 75.0244C402.263 72.6808 396.452 74.161 396.452 70.5976C396.452 69.1174 397.604 67.8566 400.125 67.8566C401.249 67.8566 402.414 68.1581 403.209 68.7063L402.757 69.8027C401.921 69.2682 400.975 69.0215 400.125 69.0215C398.494 69.0215 397.795 69.7068 397.795 70.5428C397.795 72.8864 403.606 71.4199 403.606 74.9421C403.606 76.4086 402.428 77.6695 399.892 77.6695Z"
        fill="black" />
      <path
        d="M408.322 66.2256C407.925 66.2256 407.651 66.5409 407.623 67.0754H406.883C406.911 66.0612 407.432 65.4033 408.226 65.4033C409.104 65.4033 409.542 66.3353 410.049 66.3353C410.447 66.3353 410.721 66.0201 410.748 65.513H411.488C411.461 66.486 410.94 67.1439 410.145 67.1439C409.268 67.1439 408.829 66.2256 408.322 66.2256ZM412.777 77.5598L411.721 75.1614H406.623L405.568 77.5598H404.156L408.5 67.9662H409.857L414.216 77.5598H412.777ZM407.103 74.065H411.242L409.172 69.3641L407.103 74.065Z"
        fill="black" />
      <path
        d="M419.844 77.6695C416.897 77.6695 414.732 75.5726 414.732 72.763C414.732 69.9535 416.897 67.8566 419.844 67.8566C422.763 67.8566 424.928 69.9397 424.928 72.763C424.928 75.5863 422.763 77.6695 419.844 77.6695ZM419.844 76.4497C421.968 76.4497 423.558 74.8873 423.558 72.763C423.558 70.6387 421.968 69.0763 419.844 69.0763C417.692 69.0763 416.102 70.6387 416.102 72.763C416.102 74.8873 417.692 76.4497 419.844 76.4497Z"
        fill="black" />
      <path
        d="M432.074 76.3675H437.666V77.5598H430.704V67.9662H437.474V69.1585H432.074V72.1052H436.885V73.2701H432.074V76.3675Z"
        fill="black" />
      <path
        d="M443.566 77.5598V67.9662H447.609C450.692 67.9662 452.789 69.9123 452.789 72.763C452.789 75.6137 450.692 77.5598 447.609 77.5598H443.566ZM444.936 76.3675H447.527C449.898 76.3675 451.419 74.9147 451.419 72.763C451.419 70.6113 449.898 69.1585 447.527 69.1585H444.936V76.3675Z"
        fill="black" />
      <path d="M454.889 77.5598V67.9662H456.259V77.5598H454.889Z" fill="black" />
      <path d="M466 67.9662H467.37L463.163 77.5598H461.806L457.585 67.9662H459.065L462.519 75.8467L466 67.9662Z"
        fill="black" />
      <path
        d="M469.964 76.3675H475.556V77.5598H468.594V67.9662H475.364V69.1585H469.964V72.1052H474.775V73.2701H469.964V76.3675Z"
        fill="black" />
      <path
        d="M485.683 77.5598H484.189L482.12 74.6132C481.928 74.6269 481.722 74.6406 481.517 74.6406H479.146V77.5598H477.775V67.9662H481.517C484.011 67.9662 485.519 69.2271 485.519 71.3103C485.519 72.7904 484.751 73.8594 483.408 74.3391L485.683 77.5598ZM481.476 73.4757C483.23 73.4757 484.148 72.6808 484.148 71.3103C484.148 69.9397 483.23 69.1585 481.476 69.1585H479.146V73.4757H481.476Z"
        fill="black" />
      <path
        d="M490.529 77.6695C489.062 77.6695 487.623 77.1761 486.856 76.4634L487.363 75.3944C488.076 76.0386 489.295 76.5045 490.529 76.5045C492.187 76.5045 492.9 75.8604 492.9 75.0244C492.9 72.6808 487.089 74.161 487.089 70.5976C487.089 69.1174 488.24 67.8566 490.762 67.8566C491.886 67.8566 493.051 68.1581 493.845 68.7063L493.393 69.8027C492.557 69.2682 491.611 69.0215 490.762 69.0215C489.131 69.0215 488.432 69.7068 488.432 70.5428C488.432 72.8864 494.243 71.4199 494.243 74.9421C494.243 76.4086 493.064 77.6695 490.529 77.6695Z"
        fill="black" />
      <path d="M496.245 77.5598V67.9662H497.616V77.5598H496.245Z" fill="black" />
      <path
        d="M500.488 77.5598V67.9662H504.531C507.615 67.9662 509.711 69.9123 509.711 72.763C509.711 75.6137 507.615 77.5598 504.531 77.5598H500.488ZM501.858 76.3675H504.449C506.82 76.3675 508.341 74.9147 508.341 72.763C508.341 70.6113 506.82 69.1585 504.449 69.1585H501.858V76.3675Z"
        fill="black" />
      <path
        d="M518.845 77.5598L517.789 75.1614H512.691L511.636 77.5598H510.224L514.569 67.9662H515.926L520.284 77.5598H518.845ZM513.171 74.065H517.31L515.24 69.3641L513.171 74.065Z"
        fill="black" />
      <path
        d="M521.715 77.5598V67.9662H525.758C528.842 67.9662 530.938 69.9123 530.938 72.763C530.938 75.6137 528.842 77.5598 525.758 77.5598H521.715ZM523.085 76.3675H525.676C528.047 76.3675 529.568 74.9147 529.568 72.763C529.568 70.6113 528.047 69.1585 525.676 69.1585H523.085V76.3675Z"
        fill="black" />
      <path
        d="M534.408 76.3675H540V77.5598H533.038V67.9662H539.808V69.1585H534.408V72.1052H539.219V73.2701H534.408V76.3675Z"
        fill="black" />
    </g>
    <defs>
      <clipPath id="clip0_33_204">
        <rect width="540" height="94.9916" fill="white" />
      </clipPath>
    </defs>
  </svg>